<svg width="200px" height="180px" viewBox="0 0 100 80" version="1.1" xmlns="http://www.w3.org/2000/svg" xmlns:xlink="http://www.w3.org/1999/xlink">
  <!-- Generator: Sketch 46.2 (44496) - http://www.bohemiancoding.com/sketch -->
  <desc>Created with Sketch.</desc>
  <defs></defs>
  <g id="Page-1" stroke="none" stroke-width="1" fill="none" fill-rule="evenodd">
    <g id="heroicon-browser-lg" fill-rule="nonzero">
      <path d="M0,21 L100,21 L100,76 C100,78.209139 98.209139,80 96,80 L4,80 C1.790861,80 2.705415e-16,78.209139 0,76 L0,21 Z" id="Shape" fill="#FFFFFF"></path>
      <rect id="Rectangle-path" fill="#FFFFFF" x="10" y="38" width="56" height="36"></rect>
      <rect id="Rectangle-path" fill="#FFFFFF" x="68" y="38" width="22" height="36"></rect>
      <rect id="Rectangle-path" fill="#FFFFFF" x="10" y="26" width="80" height="10"></rect>
      <path d="M0,4 C-2.705415e-16,1.790861 1.790861,0 4,0 L96,0 C98.209139,0 100,1.790861 100,4 L100,21 L0,21 L0,4 Z" id="Shape" fill="#21A179"></path>
      <rect id="Rectangle-path" fill="#FFFFFF" x="4" y="14" width="92" height="4"></rect>
      <path d="M0,20 L0,4 C-2.705415e-16,1.790861 1.790861,0 4,0 L96,0 C98.209139,0 100,1.790861 100,4 L100,76 C100,78.209139 98.209139,80 96,80 L4,80 C1.790861,80 2.705415e-16,78.209139 0,76 L0,20 Z M96,2 L4,2 C2.8954305,2 2,2.8954305 2,4 L2,10 L18,10 L24,4 L42,4 L48,10 L98,10 L98,4 C98,2.8954305 97.1045695,2 96,2 Z M2,20 L98,20 L98,12 L47.17,12 L46.59,11.41 L41.17,6 L24.83,6 L19.41,11.41 L18.83,12 L2,12 L2,20 Z M2,22 L2,76 C2,77.1 2.9,78 4,78 L96,78 C97.1045695,78 98,77.1045695 98,76 L98,22 L2,22 Z M5,14 L96,14 L96,18 L4,18 L4,14 L5,14 Z M95,15 L5,15 L5,17 L95,17 L95,15 Z M10,26 L90,26 L90,36 L10,36 L10,26 Z M11,27 L11,35 L89,35 L89,27 L11,27 Z M11,38 L66,38 L66,74 L10,74 L10,38 L11,38 Z M65,39 L11,39 L11,73 L65,73 L65,39 Z M68,38 L90,38 L90,74 L68,74 L68,38 Z M69,39 L69,73 L89,73 L89,39 L69,39 Z M8,6 C8,7.1045695 7.1045695,8 6,8 C4.8954305,8 4,7.1045695 4,6 C4,4.8954305 4.8954305,4 6,4 C7.1045695,4 8,4.8954305 8,6 Z M11,8 C9.8954305,8 9,7.1045695 9,6 C9,4.8954305 9.8954305,4 11,4 C12.1045695,4 13,4.8954305 13,6 C13,7.1045695 12.1045695,8 11,8 Z M18,6 C18,7.1045695 17.1045695,8 16,8 C14.8954305,8 14,7.1045695 14,6 C14,4.8954305 14.8954305,4 16,4 C17.1045695,4 18,4.8954305 18,6 Z" id="Shape" fill="#222C3C"></path>
    </g>
  </g>
</svg>
